<svg id="图层_1" data-name="图层 1" xmlns="http://www.w3.org/2000/svg" viewBox="0 0 38 35.98"><defs><style>.cls-1{fill:#29aeff;}.cls-2{fill:#2761e7;}</style></defs><title>logo</title><g id="_编组_" data-name="&lt;编组&gt;"><path id="_路径_" data-name="&lt;路径&gt;" class="cls-1" d="M96.54,89.53v-8H81.71a.51.51,0,0,0-.51.52h0V93.33h0a.51.51,0,0,0,.51.52h5.66v20.57h0a.51.51,0,0,0,.51.52h9.26a.52.52,0,0,0,.52-.52V89.53Z" transform="translate(-81.2 -78.95)"/><path id="_路径_2" data-name="&lt;路径&gt;" class="cls-2" d="M106.86,79H93.53a.52.52,0,0,0-.52.52h0v32.4h0a.52.52,0,0,0,.52.52h9.25a.52.52,0,0,0,.52-.52h0v-8.23h3.56a12.35,12.35,0,0,0,0-24.69Z" transform="translate(-81.2 -78.95)"/></g></svg>